<?xml version="1.0" standalone="no"?>
<!DOCTYPE svg PUBLIC "-//W3C//DTD SVG 20010904//EN"
 "http://www.w3.org/TR/2001/REC-SVG-20010904/DTD/svg10.dtd">
<svg version="1.0" xmlns="http://www.w3.org/2000/svg"
 width="305.000000pt" height="281.000000pt" viewBox="0 0 305.000000 281.000000"
 preserveAspectRatio="xMidYMid meet">

<g transform="translate(0.000000,281.000000) scale(0.100000,-0.100000)"
fill="#000000" stroke="none">
<path d="M1364 2774 c33 -83 49 -177 50 -294 1 -167 -31 -289 -106 -397 -29
-42 -77 -93 -89 -93 -3 0 -13 24 -22 53 -21 67 -66 138 -105 165 -16 12 -32
22 -34 22 -3 0 -11 -33 -18 -72 -10 -57 -34 -115 -106 -260 -141 -283 -168
-399 -123 -543 46 -150 197 -227 323 -165 60 29 87 77 151 260 92 263 130 330
225 392 31 20 37 28 20 23 -14 -4 -45 -20 -69 -36 -24 -17 -49 -28 -56 -25
-18 7 -55 87 -55 120 0 50 28 93 72 111 40 16 43 15 88 -8 41 -22 50 -23 71
-11 51 28 107 10 133 -42 15 -32 19 -34 50 -28 29 5 39 2 60 -19 13 -13 30
-44 36 -68 14 -53 14 -52 72 -125 27 -33 48 -62 48 -65 0 -4 -30 -10 -67 -14
-144 -15 -205 -83 -205 -225 0 -84 29 -156 82 -204 52 -46 97 -59 191 -54 68
4 86 9 136 40 72 44 126 118 156 213 19 60 22 93 22 225 0 131 -3 167 -23 233
-20 71 -105 267 -115 267 -2 0 -15 -28 -27 -62 -13 -35 -34 -77 -47 -95 -25
-33 -71 -68 -79 -60 -3 3 2 42 10 87 21 108 20 191 -2 272 -19 68 -64 147
-105 186 l-24 23 -7 -78 c-6 -75 -37 -162 -61 -170 -6 -2 -21 27 -34 63 -78
217 -262 436 -396 470 -25 6 -27 5 -21 -12z"/>
<path d="M1654 1785 c-10 -25 4 -47 28 -43 17 2 24 11 26 31 3 23 0 27 -23 27
-14 0 -28 -7 -31 -15z"/>
<path d="M523 1023 c-3 -10 -16 -43 -29 -73 l-22 -55 50 -3 c27 -2 56 2 63 8
14 11 55 110 55 130 0 6 -25 10 -55 10 -44 0 -57 -4 -62 -17z"/>
<path d="M66 1001 c-3 -4 -1 -13 5 -21 5 -8 9 -78 9 -155 -1 -107 -4 -145 -15
-159 -13 -17 -13 -22 0 -42 18 -28 22 -273 4 -306 -6 -11 -9 -22 -6 -24 2 -3
71 12 153 33 127 31 154 42 181 68 41 41 46 81 41 347 l-3 208 -28 27 c-27 28
-28 28 -182 30 -85 1 -157 -1 -159 -6z m222 -320 c3 -191 -1 -211 -39 -211
-18 0 -19 11 -19 201 l0 200 28 -3 27 -3 3 -184z"/>
<path d="M698 998 c15 -15 16 -231 1 -259 -7 -15 -7 -24 1 -34 8 -9 11 -56 8
-145 -2 -71 -2 -130 0 -130 24 0 256 34 284 41 50 13 78 51 78 106 0 53 -20
104 -55 139 l-26 26 24 27 c38 40 57 86 57 136 0 38 -5 52 -29 76 l-29 29
-163 0 c-127 0 -160 -3 -151 -12z m219 -115 c6 -8 9 -22 6 -31 -7 -21 -44 -62
-55 -62 -4 0 -8 27 -8 61 0 58 1 60 23 54 12 -4 27 -14 34 -22z m-19 -229 c28
-20 30 -69 3 -84 -35 -18 -41 -12 -41 45 0 59 4 63 38 39z"/>
<path d="M1106 993 c4 -10 9 -57 12 -105 3 -66 0 -95 -12 -118 -14 -28 -14
-34 0 -54 11 -17 13 -45 11 -112 -3 -49 -8 -97 -12 -106 -6 -16 0 -18 53 -18
33 0 73 3 90 6 27 6 30 9 21 25 -12 24 -8 185 5 182 13 -2 65 -141 65 -175 l1
-28 141 0 c140 0 179 8 179 35 0 17 5 17 35 6 11 -5 30 -4 43 0 19 7 25 4 34
-16 9 -19 20 -25 62 -29 69 -8 392 -36 405 -36 11 0 10 11 -10 91 l-9 36 -50
-5 c-35 -3 -50 -1 -50 8 0 12 107 365 125 413 7 16 -5 17 -159 17 -91 0 -166
-1 -166 -2 11 -61 30 -113 41 -111 8 1 25 5 39 8 58 13 57 0 -9 -205 -34 -106
-66 -189 -70 -184 -7 8 -43 161 -96 408 -7 33 -11 65 -8 73 4 10 -16 13 -99
13 l-105 0 -1 -29 c0 -15 -10 -68 -22 -117 -12 -49 -30 -128 -40 -177 -27
-123 -40 -167 -48 -167 -4 0 -27 52 -51 115 -47 125 -47 115 -1 195 23 39 26
116 7 141 -26 33 -55 39 -207 39 -141 0 -152 -1 -144 -17z m215 -104 c9 -18 7
-26 -9 -48 -10 -14 -27 -27 -36 -29 -13 -3 -16 5 -16 41 0 24 3 47 7 50 13 14
43 6 54 -14z m415 -186 c7 -61 -7 -93 -33 -71 -12 9 -14 25 -9 64 12 102 29
105 42 7z"/>
<path d="M2274 973 c16 -91 17 -95 34 -87 28 12 79 16 85 7 3 -4 -24 -104 -59
-222 -36 -118 -62 -216 -59 -219 3 -3 109 -24 235 -47 l231 -41 5 23 c5 18 11
22 23 17 9 -5 33 -8 54 -8 31 0 37 -3 37 -21 0 -12 8 -29 18 -38 16 -14 142
-50 150 -42 2 2 -1 13 -7 24 -14 25 -20 57 -73 361 -23 129 -42 255 -42 280
l-2 45 -99 0 -100 0 -3 -40 c-4 -53 -92 -506 -102 -524 -6 -11 -11 -3 -19 25
-6 21 -11 47 -11 57 0 15 -5 17 -22 11 -25 -8 -64 -7 -78 1 -9 5 2 48 72 290
22 77 43 150 46 163 l4 22 -162 0 -162 0 6 -37z m551 -364 c6 -60 4 -77 -8
-87 -11 -10 -17 -9 -27 3 -13 15 -9 117 7 174 6 23 7 23 14 5 4 -11 10 -54 14
-95z"/>
<path d="M727 273 c-4 -3 -7 -58 -7 -121 l0 -114 85 3 c77 4 87 7 112 32 24
24 28 35 28 86 0 69 -18 95 -74 111 -41 11 -134 13 -144 3z m147 -65 c9 -12
16 -36 16 -52 0 -42 -26 -66 -72 -66 l-38 0 0 70 0 70 39 0 c30 0 44 -6 55
-22z"/>
<path d="M1040 264 c-51 -37 -67 -82 -50 -145 15 -54 54 -79 125 -79 51 0 60
3 91 34 30 30 34 40 34 85 0 42 -5 56 -29 83 -24 27 -36 32 -87 35 -45 3 -65
0 -84 -13z m122 -51 c23 -20 24 -85 2 -107 -21 -21 -88 -21 -105 0 -7 9 -14
33 -14 54 0 21 7 45 14 54 18 21 79 21 103 -1z"/>
<path d="M1290 161 l0 -121 30 0 c29 0 30 2 30 45 0 60 20 60 76 0 32 -35 48
-45 73 -45 17 0 31 3 31 6 0 3 -14 23 -31 44 l-31 39 26 28 c31 33 33 62 7 94
-16 20 -29 23 -115 27 l-96 4 0 -121z m158 42 c3 -21 0 -23 -47 -23 -48 0 -51
2 -51 26 0 24 2 25 48 22 40 -3 47 -6 50 -25z"/>
<path d="M1655 249 c-22 -42 -85 -192 -85 -201 0 -4 13 -8 29 -8 20 0 34 8 45
25 22 34 68 34 102 0 23 -24 74 -35 74 -17 0 13 -81 205 -92 220 -19 23 -56
14 -73 -19z m65 -96 c0 -7 -11 -13 -25 -13 -29 0 -29 -1 -14 37 10 27 11 27
25 9 8 -11 14 -26 14 -33z"/>
<path d="M1870 161 l0 -121 68 0 c90 0 132 21 151 77 12 34 13 48 2 82 -16 55
-43 70 -140 78 l-81 6 0 -122z m144 53 c25 -24 31 -64 15 -93 -12 -21 -24 -27
-57 -29 l-42 -3 0 70 0 71 34 0 c19 0 42 -7 50 -16z"/>
<path d="M2212 268 c-6 -8 -31 -61 -56 -118 l-45 -105 32 -3 c17 -2 33 1 35 7
15 46 98 55 117 14 7 -17 18 -23 42 -23 18 0 33 2 33 3 0 2 -22 55 -49 118
-42 97 -53 114 -73 117 -14 2 -30 -3 -36 -10z m47 -98 c9 -28 8 -30 -15 -30
-24 0 -30 13 -18 44 9 24 21 19 33 -14z"/>
</g>
</svg>
